<?xml version="1.0" encoding="utf-8" standalone="no"?>
<!DOCTYPE svg PUBLIC "-//W3C//DTD SVG 1.1//EN"
  "http://www.w3.org/Graphics/SVG/1.1/DTD/svg11.dtd">
<!-- Created with matplotlib (https://matplotlib.org/) -->
<svg height="345.6pt" version="1.1" viewBox="0 0 460.8 345.6" width="460.8pt" xmlns="http://www.w3.org/2000/svg" xmlns:xlink="http://www.w3.org/1999/xlink">
 <defs>
  <style type="text/css">
*{stroke-linecap:butt;stroke-linejoin:round;white-space:pre;}
  </style>
 </defs>
 <g id="figure_1">
  <g id="patch_1">
   <path d="M 0 345.6 
L 460.8 345.6 
L 460.8 0 
L 0 0 
z
" style="fill:#ffffff;"/>
  </g>
  <g id="axes_1">
   <g id="patch_2">
    <path d="M 57.6 307.584 
L 414.72 307.584 
L 414.72 41.472 
L 57.6 41.472 
z
" style="fill:#ffffff;"/>
   </g>
   <g id="matplotlib.axis_1">
    <g id="xtick_1">
     <g id="line2d_1">
      <defs>
       <path d="M 0 0 
L 0 3.5 
" id="me8ad2f8a97" style="stroke:#000000;stroke-width:0.8;"/>
      </defs>
      <g>
       <use style="stroke:#000000;stroke-width:0.8;" x="73.806548" xlink:href="#me8ad2f8a97" y="307.584"/>
      </g>
     </g>
     <g id="text_1">
      <!-- 0 -->
      <defs>
       <path d="M 31.78125 66.40625 
Q 24.171875 66.40625 20.328125 58.90625 
Q 16.5 51.421875 16.5 36.375 
Q 16.5 21.390625 20.328125 13.890625 
Q 24.171875 6.390625 31.78125 6.390625 
Q 39.453125 6.390625 43.28125 13.890625 
Q 47.125 21.390625 47.125 36.375 
Q 47.125 51.421875 43.28125 58.90625 
Q 39.453125 66.40625 31.78125 66.40625 
z
M 31.78125 74.21875 
Q 44.046875 74.21875 50.515625 64.515625 
Q 56.984375 54.828125 56.984375 36.375 
Q 56.984375 17.96875 50.515625 8.265625 
Q 44.046875 -1.421875 31.78125 -1.421875 
Q 19.53125 -1.421875 13.0625 8.265625 
Q 6.59375 17.96875 6.59375 36.375 
Q 6.59375 54.828125 13.0625 64.515625 
Q 19.53125 74.21875 31.78125 74.21875 
z
" id="DejaVuSans-48"/>
      </defs>
      <g transform="translate(70.625298 322.182437)scale(0.1 -0.1)">
       <use xlink:href="#DejaVuSans-48"/>
      </g>
     </g>
    </g>
    <g id="xtick_2">
     <g id="line2d_2">
      <g>
       <use style="stroke:#000000;stroke-width:0.8;" x="119.89194" xlink:href="#me8ad2f8a97" y="307.584"/>
      </g>
     </g>
     <g id="text_2">
      <!-- 1000 -->
      <defs>
       <path d="M 12.40625 8.296875 
L 28.515625 8.296875 
L 28.515625 63.921875 
L 10.984375 60.40625 
L 10.984375 69.390625 
L 28.421875 72.90625 
L 38.28125 72.90625 
L 38.28125 8.296875 
L 54.390625 8.296875 
L 54.390625 0 
L 12.40625 0 
z
" id="DejaVuSans-49"/>
      </defs>
      <g transform="translate(107.16694 322.182437)scale(0.1 -0.1)">
       <use xlink:href="#DejaVuSans-49"/>
       <use x="63.623047" xlink:href="#DejaVuSans-48"/>
       <use x="127.246094" xlink:href="#DejaVuSans-48"/>
       <use x="190.869141" xlink:href="#DejaVuSans-48"/>
      </g>
     </g>
    </g>
    <g id="xtick_3">
     <g id="line2d_3">
      <g>
       <use style="stroke:#000000;stroke-width:0.8;" x="165.977331" xlink:href="#me8ad2f8a97" y="307.584"/>
      </g>
     </g>
     <g id="text_3">
      <!-- 2000 -->
      <defs>
       <path d="M 19.1875 8.296875 
L 53.609375 8.296875 
L 53.609375 0 
L 7.328125 0 
L 7.328125 8.296875 
Q 12.9375 14.109375 22.625 23.890625 
Q 32.328125 33.6875 34.8125 36.53125 
Q 39.546875 41.84375 41.421875 45.53125 
Q 43.3125 49.21875 43.3125 52.78125 
Q 43.3125 58.59375 39.234375 62.25 
Q 35.15625 65.921875 28.609375 65.921875 
Q 23.96875 65.921875 18.8125 64.3125 
Q 13.671875 62.703125 7.8125 59.421875 
L 7.8125 69.390625 
Q 13.765625 71.78125 18.9375 73 
Q 24.125 74.21875 28.421875 74.21875 
Q 39.75 74.21875 46.484375 68.546875 
Q 53.21875 62.890625 53.21875 53.421875 
Q 53.21875 48.921875 51.53125 44.890625 
Q 49.859375 40.875 45.40625 35.40625 
Q 44.1875 33.984375 37.640625 27.21875 
Q 31.109375 20.453125 19.1875 8.296875 
z
" id="DejaVuSans-50"/>
      </defs>
      <g transform="translate(153.252331 322.182437)scale(0.1 -0.1)">
       <use xlink:href="#DejaVuSans-50"/>
       <use x="63.623047" xlink:href="#DejaVuSans-48"/>
       <use x="127.246094" xlink:href="#DejaVuSans-48"/>
       <use x="190.869141" xlink:href="#DejaVuSans-48"/>
      </g>
     </g>
    </g>
    <g id="xtick_4">
     <g id="line2d_4">
      <g>
       <use style="stroke:#000000;stroke-width:0.8;" x="212.062723" xlink:href="#me8ad2f8a97" y="307.584"/>
      </g>
     </g>
     <g id="text_4">
      <!-- 3000 -->
      <defs>
       <path d="M 40.578125 39.3125 
Q 47.65625 37.796875 51.625 33 
Q 55.609375 28.21875 55.609375 21.1875 
Q 55.609375 10.40625 48.1875 4.484375 
Q 40.765625 -1.421875 27.09375 -1.421875 
Q 22.515625 -1.421875 17.65625 -0.515625 
Q 12.796875 0.390625 7.625 2.203125 
L 7.625 11.71875 
Q 11.71875 9.328125 16.59375 8.109375 
Q 21.484375 6.890625 26.8125 6.890625 
Q 36.078125 6.890625 40.9375 10.546875 
Q 45.796875 14.203125 45.796875 21.1875 
Q 45.796875 27.640625 41.28125 31.265625 
Q 36.765625 34.90625 28.71875 34.90625 
L 20.21875 34.90625 
L 20.21875 43.015625 
L 29.109375 43.015625 
Q 36.375 43.015625 40.234375 45.921875 
Q 44.09375 48.828125 44.09375 54.296875 
Q 44.09375 59.90625 40.109375 62.90625 
Q 36.140625 65.921875 28.71875 65.921875 
Q 24.65625 65.921875 20.015625 65.03125 
Q 15.375 64.15625 9.8125 62.3125 
L 9.8125 71.09375 
Q 15.4375 72.65625 20.34375 73.4375 
Q 25.25 74.21875 29.59375 74.21875 
Q 40.828125 74.21875 47.359375 69.109375 
Q 53.90625 64.015625 53.90625 55.328125 
Q 53.90625 49.265625 50.4375 45.09375 
Q 46.96875 40.921875 40.578125 39.3125 
z
" id="DejaVuSans-51"/>
      </defs>
      <g transform="translate(199.337723 322.182437)scale(0.1 -0.1)">
       <use xlink:href="#DejaVuSans-51"/>
       <use x="63.623047" xlink:href="#DejaVuSans-48"/>
       <use x="127.246094" xlink:href="#DejaVuSans-48"/>
       <use x="190.869141" xlink:href="#DejaVuSans-48"/>
      </g>
     </g>
    </g>
    <g id="xtick_5">
     <g id="line2d_5">
      <g>
       <use style="stroke:#000000;stroke-width:0.8;" x="258.148114" xlink:href="#me8ad2f8a97" y="307.584"/>
      </g>
     </g>
     <g id="text_5">
      <!-- 4000 -->
      <defs>
       <path d="M 37.796875 64.3125 
L 12.890625 25.390625 
L 37.796875 25.390625 
z
M 35.203125 72.90625 
L 47.609375 72.90625 
L 47.609375 25.390625 
L 58.015625 25.390625 
L 58.015625 17.1875 
L 47.609375 17.1875 
L 47.609375 0 
L 37.796875 0 
L 37.796875 17.1875 
L 4.890625 17.1875 
L 4.890625 26.703125 
z
" id="DejaVuSans-52"/>
      </defs>
      <g transform="translate(245.423114 322.182437)scale(0.1 -0.1)">
       <use xlink:href="#DejaVuSans-52"/>
       <use x="63.623047" xlink:href="#DejaVuSans-48"/>
       <use x="127.246094" xlink:href="#DejaVuSans-48"/>
       <use x="190.869141" xlink:href="#DejaVuSans-48"/>
      </g>
     </g>
    </g>
    <g id="xtick_6">
     <g id="line2d_6">
      <g>
       <use style="stroke:#000000;stroke-width:0.8;" x="304.233506" xlink:href="#me8ad2f8a97" y="307.584"/>
      </g>
     </g>
     <g id="text_6">
      <!-- 5000 -->
      <defs>
       <path d="M 10.796875 72.90625 
L 49.515625 72.90625 
L 49.515625 64.59375 
L 19.828125 64.59375 
L 19.828125 46.734375 
Q 21.96875 47.46875 24.109375 47.828125 
Q 26.265625 48.1875 28.421875 48.1875 
Q 40.625 48.1875 47.75 41.5 
Q 54.890625 34.8125 54.890625 23.390625 
Q 54.890625 11.625 47.5625 5.09375 
Q 40.234375 -1.421875 26.90625 -1.421875 
Q 22.3125 -1.421875 17.546875 -0.640625 
Q 12.796875 0.140625 7.71875 1.703125 
L 7.71875 11.625 
Q 12.109375 9.234375 16.796875 8.0625 
Q 21.484375 6.890625 26.703125 6.890625 
Q 35.15625 6.890625 40.078125 11.328125 
Q 45.015625 15.765625 45.015625 23.390625 
Q 45.015625 31 40.078125 35.4375 
Q 35.15625 39.890625 26.703125 39.890625 
Q 22.75 39.890625 18.8125 39.015625 
Q 14.890625 38.140625 10.796875 36.28125 
z
" id="DejaVuSans-53"/>
      </defs>
      <g transform="translate(291.508506 322.182437)scale(0.1 -0.1)">
       <use xlink:href="#DejaVuSans-53"/>
       <use x="63.623047" xlink:href="#DejaVuSans-48"/>
       <use x="127.246094" xlink:href="#DejaVuSans-48"/>
       <use x="190.869141" xlink:href="#DejaVuSans-48"/>
      </g>
     </g>
    </g>
    <g id="xtick_7">
     <g id="line2d_7">
      <g>
       <use style="stroke:#000000;stroke-width:0.8;" x="350.318898" xlink:href="#me8ad2f8a97" y="307.584"/>
      </g>
     </g>
     <g id="text_7">
      <!-- 6000 -->
      <defs>
       <path d="M 33.015625 40.375 
Q 26.375 40.375 22.484375 35.828125 
Q 18.609375 31.296875 18.609375 23.390625 
Q 18.609375 15.53125 22.484375 10.953125 
Q 26.375 6.390625 33.015625 6.390625 
Q 39.65625 6.390625 43.53125 10.953125 
Q 47.40625 15.53125 47.40625 23.390625 
Q 47.40625 31.296875 43.53125 35.828125 
Q 39.65625 40.375 33.015625 40.375 
z
M 52.59375 71.296875 
L 52.59375 62.3125 
Q 48.875 64.0625 45.09375 64.984375 
Q 41.3125 65.921875 37.59375 65.921875 
Q 27.828125 65.921875 22.671875 59.328125 
Q 17.53125 52.734375 16.796875 39.40625 
Q 19.671875 43.65625 24.015625 45.921875 
Q 28.375 48.1875 33.59375 48.1875 
Q 44.578125 48.1875 50.953125 41.515625 
Q 57.328125 34.859375 57.328125 23.390625 
Q 57.328125 12.15625 50.6875 5.359375 
Q 44.046875 -1.421875 33.015625 -1.421875 
Q 20.359375 -1.421875 13.671875 8.265625 
Q 6.984375 17.96875 6.984375 36.375 
Q 6.984375 53.65625 15.1875 63.9375 
Q 23.390625 74.21875 37.203125 74.21875 
Q 40.921875 74.21875 44.703125 73.484375 
Q 48.484375 72.75 52.59375 71.296875 
z
" id="DejaVuSans-54"/>
      </defs>
      <g transform="translate(337.593898 322.182437)scale(0.1 -0.1)">
       <use xlink:href="#DejaVuSans-54"/>
       <use x="63.623047" xlink:href="#DejaVuSans-48"/>
       <use x="127.246094" xlink:href="#DejaVuSans-48"/>
       <use x="190.869141" xlink:href="#DejaVuSans-48"/>
      </g>
     </g>
    </g>
    <g id="xtick_8">
     <g id="line2d_8">
      <g>
       <use style="stroke:#000000;stroke-width:0.8;" x="396.404289" xlink:href="#me8ad2f8a97" y="307.584"/>
      </g>
     </g>
     <g id="text_8">
      <!-- 7000 -->
      <defs>
       <path d="M 8.203125 72.90625 
L 55.078125 72.90625 
L 55.078125 68.703125 
L 28.609375 0 
L 18.3125 0 
L 43.21875 64.59375 
L 8.203125 64.59375 
z
" id="DejaVuSans-55"/>
      </defs>
      <g transform="translate(383.679289 322.182437)scale(0.1 -0.1)">
       <use xlink:href="#DejaVuSans-55"/>
       <use x="63.623047" xlink:href="#DejaVuSans-48"/>
       <use x="127.246094" xlink:href="#DejaVuSans-48"/>
       <use x="190.869141" xlink:href="#DejaVuSans-48"/>
      </g>
     </g>
    </g>
    <g id="text_9">
     <!-- Population Density (people/km²) -->
     <defs>
      <path d="M 19.671875 64.796875 
L 19.671875 37.40625 
L 32.078125 37.40625 
Q 38.96875 37.40625 42.71875 40.96875 
Q 46.484375 44.53125 46.484375 51.125 
Q 46.484375 57.671875 42.71875 61.234375 
Q 38.96875 64.796875 32.078125 64.796875 
z
M 9.8125 72.90625 
L 32.078125 72.90625 
Q 44.34375 72.90625 50.609375 67.359375 
Q 56.890625 61.8125 56.890625 51.125 
Q 56.890625 40.328125 50.609375 34.8125 
Q 44.34375 29.296875 32.078125 29.296875 
L 19.671875 29.296875 
L 19.671875 0 
L 9.8125 0 
z
" id="DejaVuSans-80"/>
      <path d="M 30.609375 48.390625 
Q 23.390625 48.390625 19.1875 42.75 
Q 14.984375 37.109375 14.984375 27.296875 
Q 14.984375 17.484375 19.15625 11.84375 
Q 23.34375 6.203125 30.609375 6.203125 
Q 37.796875 6.203125 41.984375 11.859375 
Q 46.1875 17.53125 46.1875 27.296875 
Q 46.1875 37.015625 41.984375 42.703125 
Q 37.796875 48.390625 30.609375 48.390625 
z
M 30.609375 56 
Q 42.328125 56 49.015625 48.375 
Q 55.71875 40.765625 55.71875 27.296875 
Q 55.71875 13.875 49.015625 6.21875 
Q 42.328125 -1.421875 30.609375 -1.421875 
Q 18.84375 -1.421875 12.171875 6.21875 
Q 5.515625 13.875 5.515625 27.296875 
Q 5.515625 40.765625 12.171875 48.375 
Q 18.84375 56 30.609375 56 
z
" id="DejaVuSans-111"/>
      <path d="M 18.109375 8.203125 
L 18.109375 -20.796875 
L 9.078125 -20.796875 
L 9.078125 54.6875 
L 18.109375 54.6875 
L 18.109375 46.390625 
Q 20.953125 51.265625 25.265625 53.625 
Q 29.59375 56 35.59375 56 
Q 45.5625 56 51.78125 48.09375 
Q 58.015625 40.1875 58.015625 27.296875 
Q 58.015625 14.40625 51.78125 6.484375 
Q 45.5625 -1.421875 35.59375 -1.421875 
Q 29.59375 -1.421875 25.265625 0.953125 
Q 20.953125 3.328125 18.109375 8.203125 
z
M 48.6875 27.296875 
Q 48.6875 37.203125 44.609375 42.84375 
Q 40.53125 48.484375 33.40625 48.484375 
Q 26.265625 48.484375 22.1875 42.84375 
Q 18.109375 37.203125 18.109375 27.296875 
Q 18.109375 17.390625 22.1875 11.75 
Q 26.265625 6.109375 33.40625 6.109375 
Q 40.53125 6.109375 44.609375 11.75 
Q 48.6875 17.390625 48.6875 27.296875 
z
" id="DejaVuSans-112"/>
      <path d="M 8.5 21.578125 
L 8.5 54.6875 
L 17.484375 54.6875 
L 17.484375 21.921875 
Q 17.484375 14.15625 20.5 10.265625 
Q 23.53125 6.390625 29.59375 6.390625 
Q 36.859375 6.390625 41.078125 11.03125 
Q 45.3125 15.671875 45.3125 23.6875 
L 45.3125 54.6875 
L 54.296875 54.6875 
L 54.296875 0 
L 45.3125 0 
L 45.3125 8.40625 
Q 42.046875 3.421875 37.71875 1 
Q 33.40625 -1.421875 27.6875 -1.421875 
Q 18.265625 -1.421875 13.375 4.4375 
Q 8.5 10.296875 8.5 21.578125 
z
M 31.109375 56 
z
" id="DejaVuSans-117"/>
      <path d="M 9.421875 75.984375 
L 18.40625 75.984375 
L 18.40625 0 
L 9.421875 0 
z
" id="DejaVuSans-108"/>
      <path d="M 34.28125 27.484375 
Q 23.390625 27.484375 19.1875 25 
Q 14.984375 22.515625 14.984375 16.5 
Q 14.984375 11.71875 18.140625 8.90625 
Q 21.296875 6.109375 26.703125 6.109375 
Q 34.1875 6.109375 38.703125 11.40625 
Q 43.21875 16.703125 43.21875 25.484375 
L 43.21875 27.484375 
z
M 52.203125 31.203125 
L 52.203125 0 
L 43.21875 0 
L 43.21875 8.296875 
Q 40.140625 3.328125 35.546875 0.953125 
Q 30.953125 -1.421875 24.3125 -1.421875 
Q 15.921875 -1.421875 10.953125 3.296875 
Q 6 8.015625 6 15.921875 
Q 6 25.140625 12.171875 29.828125 
Q 18.359375 34.515625 30.609375 34.515625 
L 43.21875 34.515625 
L 43.21875 35.40625 
Q 43.21875 41.609375 39.140625 45 
Q 35.0625 48.390625 27.6875 48.390625 
Q 23 48.390625 18.546875 47.265625 
Q 14.109375 46.140625 10.015625 43.890625 
L 10.015625 52.203125 
Q 14.9375 54.109375 19.578125 55.046875 
Q 24.21875 56 28.609375 56 
Q 40.484375 56 46.34375 49.84375 
Q 52.203125 43.703125 52.203125 31.203125 
z
" id="DejaVuSans-97"/>
      <path d="M 18.3125 70.21875 
L 18.3125 54.6875 
L 36.8125 54.6875 
L 36.8125 47.703125 
L 18.3125 47.703125 
L 18.3125 18.015625 
Q 18.3125 11.328125 20.140625 9.421875 
Q 21.96875 7.515625 27.59375 7.515625 
L 36.8125 7.515625 
L 36.8125 0 
L 27.59375 0 
Q 17.1875 0 13.234375 3.875 
Q 9.28125 7.765625 9.28125 18.015625 
L 9.28125 47.703125 
L 2.6875 47.703125 
L 2.6875 54.6875 
L 9.28125 54.6875 
L 9.28125 70.21875 
z
" id="DejaVuSans-116"/>
      <path d="M 9.421875 54.6875 
L 18.40625 54.6875 
L 18.40625 0 
L 9.421875 0 
z
M 9.421875 75.984375 
L 18.40625 75.984375 
L 18.40625 64.59375 
L 9.421875 64.59375 
z
" id="DejaVuSans-105"/>
      <path d="M 54.890625 33.015625 
L 54.890625 0 
L 45.90625 0 
L 45.90625 32.71875 
Q 45.90625 40.484375 42.875 44.328125 
Q 39.84375 48.1875 33.796875 48.1875 
Q 26.515625 48.1875 22.3125 43.546875 
Q 18.109375 38.921875 18.109375 30.90625 
L 18.109375 0 
L 9.078125 0 
L 9.078125 54.6875 
L 18.109375 54.6875 
L 18.109375 46.1875 
Q 21.34375 51.125 25.703125 53.5625 
Q 30.078125 56 35.796875 56 
Q 45.21875 56 50.046875 50.171875 
Q 54.890625 44.34375 54.890625 33.015625 
z
" id="DejaVuSans-110"/>
      <path id="DejaVuSans-32"/>
      <path d="M 19.671875 64.796875 
L 19.671875 8.109375 
L 31.59375 8.109375 
Q 46.6875 8.109375 53.6875 14.9375 
Q 60.6875 21.78125 60.6875 36.53125 
Q 60.6875 51.171875 53.6875 57.984375 
Q 46.6875 64.796875 31.59375 64.796875 
z
M 9.8125 72.90625 
L 30.078125 72.90625 
Q 51.265625 72.90625 61.171875 64.09375 
Q 71.09375 55.28125 71.09375 36.53125 
Q 71.09375 17.671875 61.125 8.828125 
Q 51.171875 0 30.078125 0 
L 9.8125 0 
z
" id="DejaVuSans-68"/>
      <path d="M 56.203125 29.59375 
L 56.203125 25.203125 
L 14.890625 25.203125 
Q 15.484375 15.921875 20.484375 11.0625 
Q 25.484375 6.203125 34.421875 6.203125 
Q 39.59375 6.203125 44.453125 7.46875 
Q 49.3125 8.734375 54.109375 11.28125 
L 54.109375 2.78125 
Q 49.265625 0.734375 44.1875 -0.34375 
Q 39.109375 -1.421875 33.890625 -1.421875 
Q 20.796875 -1.421875 13.15625 6.1875 
Q 5.515625 13.8125 5.515625 26.8125 
Q 5.515625 40.234375 12.765625 48.109375 
Q 20.015625 56 32.328125 56 
Q 43.359375 56 49.78125 48.890625 
Q 56.203125 41.796875 56.203125 29.59375 
z
M 47.21875 32.234375 
Q 47.125 39.59375 43.09375 43.984375 
Q 39.0625 48.390625 32.421875 48.390625 
Q 24.90625 48.390625 20.390625 44.140625 
Q 15.875 39.890625 15.1875 32.171875 
z
" id="DejaVuSans-101"/>
      <path d="M 44.28125 53.078125 
L 44.28125 44.578125 
Q 40.484375 46.53125 36.375 47.5 
Q 32.28125 48.484375 27.875 48.484375 
Q 21.1875 48.484375 17.84375 46.4375 
Q 14.5 44.390625 14.5 40.28125 
Q 14.5 37.15625 16.890625 35.375 
Q 19.28125 33.59375 26.515625 31.984375 
L 29.59375 31.296875 
Q 39.15625 29.25 43.1875 25.515625 
Q 47.21875 21.78125 47.21875 15.09375 
Q 47.21875 7.46875 41.1875 3.015625 
Q 35.15625 -1.421875 24.609375 -1.421875 
Q 20.21875 -1.421875 15.453125 -0.5625 
Q 10.6875 0.296875 5.421875 2 
L 5.421875 11.28125 
Q 10.40625 8.6875 15.234375 7.390625 
Q 20.0625 6.109375 24.8125 6.109375 
Q 31.15625 6.109375 34.5625 8.28125 
Q 37.984375 10.453125 37.984375 14.40625 
Q 37.984375 18.0625 35.515625 20.015625 
Q 33.0625 21.96875 24.703125 23.78125 
L 21.578125 24.515625 
Q 13.234375 26.265625 9.515625 29.90625 
Q 5.8125 33.546875 5.8125 39.890625 
Q 5.8125 47.609375 11.28125 51.796875 
Q 16.75 56 26.8125 56 
Q 31.78125 56 36.171875 55.265625 
Q 40.578125 54.546875 44.28125 53.078125 
z
" id="DejaVuSans-115"/>
      <path d="M 32.171875 -5.078125 
Q 28.375 -14.84375 24.75 -17.8125 
Q 21.140625 -20.796875 15.09375 -20.796875 
L 7.90625 -20.796875 
L 7.90625 -13.28125 
L 13.1875 -13.28125 
Q 16.890625 -13.28125 18.9375 -11.515625 
Q 21 -9.765625 23.484375 -3.21875 
L 25.09375 0.875 
L 2.984375 54.6875 
L 12.5 54.6875 
L 29.59375 11.921875 
L 46.6875 54.6875 
L 56.203125 54.6875 
z
" id="DejaVuSans-121"/>
      <path d="M 31 75.875 
Q 24.46875 64.65625 21.28125 53.65625 
Q 18.109375 42.671875 18.109375 31.390625 
Q 18.109375 20.125 21.3125 9.0625 
Q 24.515625 -2 31 -13.1875 
L 23.1875 -13.1875 
Q 15.875 -1.703125 12.234375 9.375 
Q 8.59375 20.453125 8.59375 31.390625 
Q 8.59375 42.28125 12.203125 53.3125 
Q 15.828125 64.359375 23.1875 75.875 
z
" id="DejaVuSans-40"/>
      <path d="M 25.390625 72.90625 
L 33.6875 72.90625 
L 8.296875 -9.28125 
L 0 -9.28125 
z
" id="DejaVuSans-47"/>
      <path d="M 9.078125 75.984375 
L 18.109375 75.984375 
L 18.109375 31.109375 
L 44.921875 54.6875 
L 56.390625 54.6875 
L 27.390625 29.109375 
L 57.625 0 
L 45.90625 0 
L 18.109375 26.703125 
L 18.109375 0 
L 9.078125 0 
z
" id="DejaVuSans-107"/>
      <path d="M 52 44.1875 
Q 55.375 50.25 60.0625 53.125 
Q 64.75 56 71.09375 56 
Q 79.640625 56 84.28125 50.015625 
Q 88.921875 44.046875 88.921875 33.015625 
L 88.921875 0 
L 79.890625 0 
L 79.890625 32.71875 
Q 79.890625 40.578125 77.09375 44.375 
Q 74.3125 48.1875 68.609375 48.1875 
Q 61.625 48.1875 57.5625 43.546875 
Q 53.515625 38.921875 53.515625 30.90625 
L 53.515625 0 
L 44.484375 0 
L 44.484375 32.71875 
Q 44.484375 40.625 41.703125 44.40625 
Q 38.921875 48.1875 33.109375 48.1875 
Q 26.21875 48.1875 22.15625 43.53125 
Q 18.109375 38.875 18.109375 30.90625 
L 18.109375 0 
L 9.078125 0 
L 9.078125 54.6875 
L 18.109375 54.6875 
L 18.109375 46.1875 
Q 21.1875 51.21875 25.484375 53.609375 
Q 29.78125 56 35.6875 56 
Q 41.65625 56 45.828125 52.96875 
Q 50 49.953125 52 44.1875 
z
" id="DejaVuSans-109"/>
      <path d="M 13.09375 38.1875 
L 33.796875 38.1875 
L 33.796875 32.625 
L 4.59375 32.625 
L 4.59375 37.984375 
Q 6.25 39.5 9.328125 42.234375 
Q 26.125 57.125 26.125 61.71875 
Q 26.125 64.9375 23.578125 66.90625 
Q 21.046875 68.890625 16.890625 68.890625 
Q 14.359375 68.890625 11.375 68.03125 
Q 8.40625 67.1875 4.890625 65.484375 
L 4.890625 71.484375 
Q 8.640625 72.859375 11.890625 73.53125 
Q 15.140625 74.21875 17.921875 74.21875 
Q 25 74.21875 29.25 71 
Q 33.5 67.78125 33.5 62.5 
Q 33.5 55.71875 17.328125 41.84375 
Q 14.59375 39.5 13.09375 38.1875 
z
" id="DejaVuSans-178"/>
      <path d="M 8.015625 75.875 
L 15.828125 75.875 
Q 23.140625 64.359375 26.78125 53.3125 
Q 30.421875 42.28125 30.421875 31.390625 
Q 30.421875 20.453125 26.78125 9.375 
Q 23.140625 -1.703125 15.828125 -13.1875 
L 8.015625 -13.1875 
Q 14.5 -2 17.703125 9.0625 
Q 20.90625 20.125 20.90625 31.390625 
Q 20.90625 42.671875 17.703125 53.65625 
Q 14.5 64.65625 8.015625 75.875 
z
" id="DejaVuSans-41"/>
     </defs>
     <g transform="translate(155.221719 335.860562)scale(0.1 -0.1)">
      <use xlink:href="#DejaVuSans-80"/>
      <use x="60.255859" xlink:href="#DejaVuSans-111"/>
      <use x="121.4375" xlink:href="#DejaVuSans-112"/>
      <use x="184.914062" xlink:href="#DejaVuSans-117"/>
      <use x="248.292969" xlink:href="#DejaVuSans-108"/>
      <use x="276.076172" xlink:href="#DejaVuSans-97"/>
      <use x="337.355469" xlink:href="#DejaVuSans-116"/>
      <use x="376.564453" xlink:href="#DejaVuSans-105"/>
      <use x="404.347656" xlink:href="#DejaVuSans-111"/>
      <use x="465.529297" xlink:href="#DejaVuSans-110"/>
      <use x="528.908203" xlink:href="#DejaVuSans-32"/>
      <use x="560.695312" xlink:href="#DejaVuSans-68"/>
      <use x="637.697266" xlink:href="#DejaVuSans-101"/>
      <use x="699.220703" xlink:href="#DejaVuSans-110"/>
      <use x="762.599609" xlink:href="#DejaVuSans-115"/>
      <use x="814.699219" xlink:href="#DejaVuSans-105"/>
      <use x="842.482422" xlink:href="#DejaVuSans-116"/>
      <use x="881.691406" xlink:href="#DejaVuSans-121"/>
      <use x="940.871094" xlink:href="#DejaVuSans-32"/>
      <use x="972.658203" xlink:href="#DejaVuSans-40"/>
      <use x="1011.671875" xlink:href="#DejaVuSans-112"/>
      <use x="1075.148438" xlink:href="#DejaVuSans-101"/>
      <use x="1136.671875" xlink:href="#DejaVuSans-111"/>
      <use x="1197.853516" xlink:href="#DejaVuSans-112"/>
      <use x="1261.330078" xlink:href="#DejaVuSans-108"/>
      <use x="1289.113281" xlink:href="#DejaVuSans-101"/>
      <use x="1350.636719" xlink:href="#DejaVuSans-47"/>
      <use x="1384.328125" xlink:href="#DejaVuSans-107"/>
      <use x="1442.238281" xlink:href="#DejaVuSans-109"/>
      <use x="1539.650391" xlink:href="#DejaVuSans-178"/>
      <use x="1579.738281" xlink:href="#DejaVuSans-41"/>
     </g>
    </g>
   </g>
   <g id="matplotlib.axis_2">
    <g id="ytick_1">
     <g id="line2d_9">
      <defs>
       <path d="M 0 0 
L -3.5 0 
" id="m149630e1b7" style="stroke:#000000;stroke-width:0.8;"/>
      </defs>
      <g>
       <use style="stroke:#000000;stroke-width:0.8;" x="57.6" xlink:href="#m149630e1b7" y="297.850422"/>
      </g>
     </g>
     <g id="text_10">
      <!-- −5 -->
      <defs>
       <path d="M 10.59375 35.5 
L 73.1875 35.5 
L 73.1875 27.203125 
L 10.59375 27.203125 
z
" id="DejaVuSans-8722"/>
      </defs>
      <g transform="translate(35.857813 301.649641)scale(0.1 -0.1)">
       <use xlink:href="#DejaVuSans-8722"/>
       <use x="83.789062" xlink:href="#DejaVuSans-53"/>
      </g>
     </g>
    </g>
    <g id="ytick_2">
     <g id="line2d_10">
      <g>
       <use style="stroke:#000000;stroke-width:0.8;" x="57.6" xlink:href="#m149630e1b7" y="264.768881"/>
      </g>
     </g>
     <g id="text_11">
      <!-- 0 -->
      <g transform="translate(44.2375 268.5681)scale(0.1 -0.1)">
       <use xlink:href="#DejaVuSans-48"/>
      </g>
     </g>
    </g>
    <g id="ytick_3">
     <g id="line2d_11">
      <g>
       <use style="stroke:#000000;stroke-width:0.8;" x="57.6" xlink:href="#m149630e1b7" y="231.687339"/>
      </g>
     </g>
     <g id="text_12">
      <!-- 5 -->
      <g transform="translate(44.2375 235.486558)scale(0.1 -0.1)">
       <use xlink:href="#DejaVuSans-53"/>
      </g>
     </g>
    </g>
    <g id="ytick_4">
     <g id="line2d_12">
      <g>
       <use style="stroke:#000000;stroke-width:0.8;" x="57.6" xlink:href="#m149630e1b7" y="198.605798"/>
      </g>
     </g>
     <g id="text_13">
      <!-- 10 -->
      <g transform="translate(37.875 202.405017)scale(0.1 -0.1)">
       <use xlink:href="#DejaVuSans-49"/>
       <use x="63.623047" xlink:href="#DejaVuSans-48"/>
      </g>
     </g>
    </g>
    <g id="ytick_5">
     <g id="line2d_13">
      <g>
       <use style="stroke:#000000;stroke-width:0.8;" x="57.6" xlink:href="#m149630e1b7" y="165.524256"/>
      </g>
     </g>
     <g id="text_14">
      <!-- 15 -->
      <g transform="translate(37.875 169.323475)scale(0.1 -0.1)">
       <use xlink:href="#DejaVuSans-49"/>
       <use x="63.623047" xlink:href="#DejaVuSans-53"/>
      </g>
     </g>
    </g>
    <g id="ytick_6">
     <g id="line2d_14">
      <g>
       <use style="stroke:#000000;stroke-width:0.8;" x="57.6" xlink:href="#m149630e1b7" y="132.442715"/>
      </g>
     </g>
     <g id="text_15">
      <!-- 20 -->
      <g transform="translate(37.875 136.241934)scale(0.1 -0.1)">
       <use xlink:href="#DejaVuSans-50"/>
       <use x="63.623047" xlink:href="#DejaVuSans-48"/>
      </g>
     </g>
    </g>
    <g id="ytick_7">
     <g id="line2d_15">
      <g>
       <use style="stroke:#000000;stroke-width:0.8;" x="57.6" xlink:href="#m149630e1b7" y="99.361173"/>
      </g>
     </g>
     <g id="text_16">
      <!-- 25 -->
      <g transform="translate(37.875 103.160392)scale(0.1 -0.1)">
       <use xlink:href="#DejaVuSans-50"/>
       <use x="63.623047" xlink:href="#DejaVuSans-53"/>
      </g>
     </g>
    </g>
    <g id="ytick_8">
     <g id="line2d_16">
      <g>
       <use style="stroke:#000000;stroke-width:0.8;" x="57.6" xlink:href="#m149630e1b7" y="66.279632"/>
      </g>
     </g>
     <g id="text_17">
      <!-- 30 -->
      <g transform="translate(37.875 70.078851)scale(0.1 -0.1)">
       <use xlink:href="#DejaVuSans-51"/>
       <use x="63.623047" xlink:href="#DejaVuSans-48"/>
      </g>
     </g>
    </g>
    <g id="text_18">
     <!-- Avg Max Temperature (°C) -->
     <defs>
      <path d="M 34.1875 63.1875 
L 20.796875 26.90625 
L 47.609375 26.90625 
z
M 28.609375 72.90625 
L 39.796875 72.90625 
L 67.578125 0 
L 57.328125 0 
L 50.6875 18.703125 
L 17.828125 18.703125 
L 11.1875 0 
L 0.78125 0 
z
" id="DejaVuSans-65"/>
      <path d="M 2.984375 54.6875 
L 12.5 54.6875 
L 29.59375 8.796875 
L 46.6875 54.6875 
L 56.203125 54.6875 
L 35.6875 0 
L 23.484375 0 
z
" id="DejaVuSans-118"/>
      <path d="M 45.40625 27.984375 
Q 45.40625 37.75 41.375 43.109375 
Q 37.359375 48.484375 30.078125 48.484375 
Q 22.859375 48.484375 18.828125 43.109375 
Q 14.796875 37.75 14.796875 27.984375 
Q 14.796875 18.265625 18.828125 12.890625 
Q 22.859375 7.515625 30.078125 7.515625 
Q 37.359375 7.515625 41.375 12.890625 
Q 45.40625 18.265625 45.40625 27.984375 
z
M 54.390625 6.78125 
Q 54.390625 -7.171875 48.1875 -13.984375 
Q 42 -20.796875 29.203125 -20.796875 
Q 24.46875 -20.796875 20.265625 -20.09375 
Q 16.0625 -19.390625 12.109375 -17.921875 
L 12.109375 -9.1875 
Q 16.0625 -11.328125 19.921875 -12.34375 
Q 23.78125 -13.375 27.78125 -13.375 
Q 36.625 -13.375 41.015625 -8.765625 
Q 45.40625 -4.15625 45.40625 5.171875 
L 45.40625 9.625 
Q 42.625 4.78125 38.28125 2.390625 
Q 33.9375 0 27.875 0 
Q 17.828125 0 11.671875 7.65625 
Q 5.515625 15.328125 5.515625 27.984375 
Q 5.515625 40.671875 11.671875 48.328125 
Q 17.828125 56 27.875 56 
Q 33.9375 56 38.28125 53.609375 
Q 42.625 51.21875 45.40625 46.390625 
L 45.40625 54.6875 
L 54.390625 54.6875 
z
" id="DejaVuSans-103"/>
      <path d="M 9.8125 72.90625 
L 24.515625 72.90625 
L 43.109375 23.296875 
L 61.8125 72.90625 
L 76.515625 72.90625 
L 76.515625 0 
L 66.890625 0 
L 66.890625 64.015625 
L 48.09375 14.015625 
L 38.1875 14.015625 
L 19.390625 64.015625 
L 19.390625 0 
L 9.8125 0 
z
" id="DejaVuSans-77"/>
      <path d="M 54.890625 54.6875 
L 35.109375 28.078125 
L 55.90625 0 
L 45.3125 0 
L 29.390625 21.484375 
L 13.484375 0 
L 2.875 0 
L 24.125 28.609375 
L 4.6875 54.6875 
L 15.28125 54.6875 
L 29.78125 35.203125 
L 44.28125 54.6875 
z
" id="DejaVuSans-120"/>
      <path d="M -0.296875 72.90625 
L 61.375 72.90625 
L 61.375 64.59375 
L 35.5 64.59375 
L 35.5 0 
L 25.59375 0 
L 25.59375 64.59375 
L -0.296875 64.59375 
z
" id="DejaVuSans-84"/>
      <path d="M 41.109375 46.296875 
Q 39.59375 47.171875 37.8125 47.578125 
Q 36.03125 48 33.890625 48 
Q 26.265625 48 22.1875 43.046875 
Q 18.109375 38.09375 18.109375 28.8125 
L 18.109375 0 
L 9.078125 0 
L 9.078125 54.6875 
L 18.109375 54.6875 
L 18.109375 46.1875 
Q 20.953125 51.171875 25.484375 53.578125 
Q 30.03125 56 36.53125 56 
Q 37.453125 56 38.578125 55.875 
Q 39.703125 55.765625 41.0625 55.515625 
z
" id="DejaVuSans-114"/>
      <path d="M 25 67.921875 
Q 21.09375 67.921875 18.40625 65.203125 
Q 15.71875 62.5 15.71875 58.59375 
Q 15.71875 54.734375 18.40625 52.078125 
Q 21.09375 49.421875 25 49.421875 
Q 28.90625 49.421875 31.59375 52.078125 
Q 34.28125 54.734375 34.28125 58.59375 
Q 34.28125 62.453125 31.5625 65.1875 
Q 28.859375 67.921875 25 67.921875 
z
M 25 74.21875 
Q 28.125 74.21875 31 73.015625 
Q 33.890625 71.828125 35.984375 69.578125 
Q 38.234375 67.390625 39.359375 64.59375 
Q 40.484375 61.8125 40.484375 58.59375 
Q 40.484375 52.15625 35.96875 47.6875 
Q 31.453125 43.21875 24.90625 43.21875 
Q 18.3125 43.21875 13.90625 47.609375 
Q 9.515625 52 9.515625 58.59375 
Q 9.515625 65.140625 14 69.671875 
Q 18.5 74.21875 25 74.21875 
z
" id="DejaVuSans-176"/>
      <path d="M 64.40625 67.28125 
L 64.40625 56.890625 
Q 59.421875 61.53125 53.78125 63.8125 
Q 48.140625 66.109375 41.796875 66.109375 
Q 29.296875 66.109375 22.65625 58.46875 
Q 16.015625 50.828125 16.015625 36.375 
Q 16.015625 21.96875 22.65625 14.328125 
Q 29.296875 6.6875 41.796875 6.6875 
Q 48.140625 6.6875 53.78125 8.984375 
Q 59.421875 11.28125 64.40625 15.921875 
L 64.40625 5.609375 
Q 59.234375 2.09375 53.4375 0.328125 
Q 47.65625 -1.421875 41.21875 -1.421875 
Q 24.65625 -1.421875 15.125 8.703125 
Q 5.609375 18.84375 5.609375 36.375 
Q 5.609375 53.953125 15.125 64.078125 
Q 24.65625 74.21875 41.21875 74.21875 
Q 47.75 74.21875 53.53125 72.484375 
Q 59.328125 70.75 64.40625 67.28125 
z
" id="DejaVuSans-67"/>
     </defs>
     <g transform="translate(29.778125 241.692844)rotate(-90)scale(0.1 -0.1)">
      <use xlink:href="#DejaVuSans-65"/>
      <use x="68.330078" xlink:href="#DejaVuSans-118"/>
      <use x="127.509766" xlink:href="#DejaVuSans-103"/>
      <use x="190.986328" xlink:href="#DejaVuSans-32"/>
      <use x="222.773438" xlink:href="#DejaVuSans-77"/>
      <use x="309.052734" xlink:href="#DejaVuSans-97"/>
      <use x="370.332031" xlink:href="#DejaVuSans-120"/>
      <use x="429.511719" xlink:href="#DejaVuSans-32"/>
      <use x="461.298828" xlink:href="#DejaVuSans-84"/>
      <use x="522.117188" xlink:href="#DejaVuSans-101"/>
      <use x="583.640625" xlink:href="#DejaVuSans-109"/>
      <use x="681.052734" xlink:href="#DejaVuSans-112"/>
      <use x="744.529297" xlink:href="#DejaVuSans-101"/>
      <use x="806.052734" xlink:href="#DejaVuSans-114"/>
      <use x="847.166016" xlink:href="#DejaVuSans-97"/>
      <use x="908.445312" xlink:href="#DejaVuSans-116"/>
      <use x="947.654297" xlink:href="#DejaVuSans-117"/>
      <use x="1011.033203" xlink:href="#DejaVuSans-114"/>
      <use x="1052.115234" xlink:href="#DejaVuSans-101"/>
      <use x="1113.638672" xlink:href="#DejaVuSans-32"/>
      <use x="1145.425781" xlink:href="#DejaVuSans-40"/>
      <use x="1184.439453" xlink:href="#DejaVuSans-176"/>
      <use x="1234.439453" xlink:href="#DejaVuSans-67"/>
      <use x="1304.263672" xlink:href="#DejaVuSans-41"/>
     </g>
    </g>
   </g>
   <g id="line2d_17">
    <defs>
     <path d="M 0 1.5 
C 0.397805 1.5 0.77937 1.341951 1.06066 1.06066 
C 1.341951 0.77937 1.5 0.397805 1.5 0 
C 1.5 -0.397805 1.341951 -0.77937 1.06066 -1.06066 
C 0.77937 -1.341951 0.397805 -1.5 0 -1.5 
C -0.397805 -1.5 -0.77937 -1.341951 -1.06066 -1.06066 
C -1.341951 -0.77937 -1.5 -0.397805 -1.5 0 
C -1.5 0.397805 -1.341951 0.77937 -1.06066 1.06066 
C -0.77937 1.341951 -0.397805 1.5 0 1.5 
z
" id="mb5d4f5f2a5" style="stroke:#0000ff;"/>
    </defs>
    <g clip-path="url(#p8d4ea347d6)">
     <use style="fill:#0000ff;stroke:#0000ff;" x="135.055295" xlink:href="#mb5d4f5f2a5" y="184.365327"/>
     <use style="fill:#0000ff;stroke:#0000ff;" x="128.500063" xlink:href="#mb5d4f5f2a5" y="191.338855"/>
     <use style="fill:#0000ff;stroke:#0000ff;" x="90.188552" xlink:href="#mb5d4f5f2a5" y="160.345097"/>
     <use style="fill:#0000ff;stroke:#0000ff;" x="187.338045" xlink:href="#mb5d4f5f2a5" y="172.956576"/>
     <use style="fill:#0000ff;stroke:#0000ff;" x="116.251194" xlink:href="#mb5d4f5f2a5" y="173.035393"/>
     <use style="fill:#0000ff;stroke:#0000ff;" x="82.031638" xlink:href="#mb5d4f5f2a5" y="175.554726"/>
     <use style="fill:#0000ff;stroke:#0000ff;" x="144.504683" xlink:href="#mb5d4f5f2a5" y="157.742576"/>
     <use style="fill:#0000ff;stroke:#0000ff;" x="142.007713" xlink:href="#mb5d4f5f2a5" y="175.848275"/>
     <use style="fill:#0000ff;stroke:#0000ff;" x="315.65547" xlink:href="#mb5d4f5f2a5" y="164.506363"/>
     <use style="fill:#0000ff;stroke:#0000ff;" x="263.241888" xlink:href="#mb5d4f5f2a5" y="164.669788"/>
     <use style="fill:#0000ff;stroke:#0000ff;" x="93.63441" xlink:href="#mb5d4f5f2a5" y="185.782054"/>
     <use style="fill:#0000ff;stroke:#0000ff;" x="84.775876" xlink:href="#mb5d4f5f2a5" y="200.462341"/>
     <use style="fill:#0000ff;stroke:#0000ff;" x="79.743587" xlink:href="#mb5d4f5f2a5" y="295.488"/>
     <use style="fill:#0000ff;stroke:#0000ff;" x="158.46743" xlink:href="#mb5d4f5f2a5" y="165.211948"/>
     <use style="fill:#0000ff;stroke:#0000ff;" x="117.439232" xlink:href="#mb5d4f5f2a5" y="170.950368"/>
     <use style="fill:#0000ff;stroke:#0000ff;" x="76.13246" xlink:href="#mb5d4f5f2a5" y="195.773362"/>
     <use style="fill:#0000ff;stroke:#0000ff;" x="94.860799" xlink:href="#mb5d4f5f2a5" y="164.065323"/>
     <use style="fill:#0000ff;stroke:#0000ff;" x="147.586604" xlink:href="#mb5d4f5f2a5" y="172.040593"/>
     <use style="fill:#0000ff;stroke:#0000ff;" x="139.214288" xlink:href="#mb5d4f5f2a5" y="164.990975"/>
     <use style="fill:#0000ff;stroke:#0000ff;" x="186.252855" xlink:href="#mb5d4f5f2a5" y="157.93107"/>
     <use style="fill:#0000ff;stroke:#0000ff;" x="88.457277" xlink:href="#mb5d4f5f2a5" y="180.60286"/>
     <use style="fill:#0000ff;stroke:#0000ff;" x="77.826053" xlink:href="#mb5d4f5f2a5" y="171.04327"/>
     <use style="fill:#0000ff;stroke:#0000ff;" x="78.649768" xlink:href="#mb5d4f5f2a5" y="185.59734"/>
     <use style="fill:#0000ff;stroke:#0000ff;" x="84.965804" xlink:href="#mb5d4f5f2a5" y="194.958581"/>
     <use style="fill:#0000ff;stroke:#0000ff;" x="273.624833" xlink:href="#mb5d4f5f2a5" y="165.375575"/>
     <use style="fill:#0000ff;stroke:#0000ff;" x="75.190513" xlink:href="#mb5d4f5f2a5" y="190.619446"/>
     <use style="fill:#0000ff;stroke:#0000ff;" x="73.832727" xlink:href="#mb5d4f5f2a5" y="192.699306"/>
     <use style="fill:#0000ff;stroke:#0000ff;" x="105.981832" xlink:href="#mb5d4f5f2a5" y="155.517433"/>
     <use style="fill:#0000ff;stroke:#0000ff;" x="210.058008" xlink:href="#mb5d4f5f2a5" y="148.274595"/>
     <use style="fill:#0000ff;stroke:#0000ff;" x="74.056084" xlink:href="#mb5d4f5f2a5" y="211.053988"/>
     <use style="fill:#0000ff;stroke:#0000ff;" x="111.031282" xlink:href="#mb5d4f5f2a5" y="162.799894"/>
     <use style="fill:#0000ff;stroke:#0000ff;" x="116.716237" xlink:href="#mb5d4f5f2a5" y="153.934763"/>
     <use style="fill:#0000ff;stroke:#0000ff;" x="76.074074" xlink:href="#mb5d4f5f2a5" y="162.435317"/>
     <use style="fill:#0000ff;stroke:#0000ff;" x="84.22922" xlink:href="#mb5d4f5f2a5" y="162.926442"/>
     <use style="fill:#0000ff;stroke:#0000ff;" x="84.353989" xlink:href="#mb5d4f5f2a5" y="185.035055"/>
     <use style="fill:#0000ff;stroke:#0000ff;" x="83.062257" xlink:href="#mb5d4f5f2a5" y="185.035055"/>
     <use style="fill:#0000ff;stroke:#0000ff;" x="74.434176" xlink:href="#mb5d4f5f2a5" y="162.435317"/>
     <use style="fill:#0000ff;stroke:#0000ff;" x="74.858105" xlink:href="#mb5d4f5f2a5" y="209.105512"/>
     <use style="fill:#0000ff;stroke:#0000ff;" x="93.917007" xlink:href="#mb5d4f5f2a5" y="148.274595"/>
     <use style="fill:#0000ff;stroke:#0000ff;" x="231.560545" xlink:href="#mb5d4f5f2a5" y="180.093"/>
     <use style="fill:#0000ff;stroke:#0000ff;" x="97.548206" xlink:href="#mb5d4f5f2a5" y="153.934763"/>
     <use style="fill:#0000ff;stroke:#0000ff;" x="124.442598" xlink:href="#mb5d4f5f2a5" y="195.074643"/>
     <use style="fill:#0000ff;stroke:#0000ff;" x="137.483716" xlink:href="#mb5d4f5f2a5" y="148.274595"/>
     <use style="fill:#0000ff;stroke:#0000ff;" x="78.088442" xlink:href="#mb5d4f5f2a5" y="177.564745"/>
     <use style="fill:#0000ff;stroke:#0000ff;" x="74.131224" xlink:href="#mb5d4f5f2a5" y="211.053988"/>
     <use style="fill:#0000ff;stroke:#0000ff;" x="79.727426" xlink:href="#mb5d4f5f2a5" y="205.915421"/>
     <use style="fill:#0000ff;stroke:#0000ff;" x="134.639265" xlink:href="#mb5d4f5f2a5" y="170.155672"/>
     <use style="fill:#0000ff;stroke:#0000ff;" x="74.359702" xlink:href="#mb5d4f5f2a5" y="217.455862"/>
     <use style="fill:#0000ff;stroke:#0000ff;" x="107.196013" xlink:href="#mb5d4f5f2a5" y="148.274595"/>
     <use style="fill:#0000ff;stroke:#0000ff;" x="74.229412" xlink:href="#mb5d4f5f2a5" y="209.105512"/>
     <use style="fill:#0000ff;stroke:#0000ff;" x="133.072362" xlink:href="#mb5d4f5f2a5" y="197.566873"/>
     <use style="fill:#0000ff;stroke:#0000ff;" x="134.944583" xlink:href="#mb5d4f5f2a5" y="189.818684"/>
     <use style="fill:#0000ff;stroke:#0000ff;" x="133.75776" xlink:href="#mb5d4f5f2a5" y="197.566873"/>
     <use style="fill:#0000ff;stroke:#0000ff;" x="76.381772" xlink:href="#mb5d4f5f2a5" y="217.255275"/>
     <use style="fill:#0000ff;stroke:#0000ff;" x="398.393705" xlink:href="#mb5d4f5f2a5" y="144.825696"/>
     <use style="fill:#0000ff;stroke:#0000ff;" x="85.098205" xlink:href="#mb5d4f5f2a5" y="101.703997"/>
     <use style="fill:#0000ff;stroke:#0000ff;" x="280.820605" xlink:href="#mb5d4f5f2a5" y="165.293965"/>
     <use style="fill:#0000ff;stroke:#0000ff;" x="136.083198" xlink:href="#mb5d4f5f2a5" y="82.402816"/>
     <use style="fill:#0000ff;stroke:#0000ff;" x="124.28896" xlink:href="#mb5d4f5f2a5" y="57.166842"/>
     <use style="fill:#0000ff;stroke:#0000ff;" x="269.875818" xlink:href="#mb5d4f5f2a5" y="136.316665"/>
     <use style="fill:#0000ff;stroke:#0000ff;" x="128.753223" xlink:href="#mb5d4f5f2a5" y="75.958242"/>
     <use style="fill:#0000ff;stroke:#0000ff;" x="140.457696" xlink:href="#mb5d4f5f2a5" y="115.095695"/>
     <use style="fill:#0000ff;stroke:#0000ff;" x="129.063625" xlink:href="#mb5d4f5f2a5" y="91.81569"/>
     <use style="fill:#0000ff;stroke:#0000ff;" x="172.729739" xlink:href="#mb5d4f5f2a5" y="115.979677"/>
     <use style="fill:#0000ff;stroke:#0000ff;" x="133.563359" xlink:href="#mb5d4f5f2a5" y="82.426316"/>
     <use style="fill:#0000ff;stroke:#0000ff;" x="90.52568" xlink:href="#mb5d4f5f2a5" y="79.143471"/>
     <use style="fill:#0000ff;stroke:#0000ff;" x="398.487273" xlink:href="#mb5d4f5f2a5" y="145.888644"/>
     <use style="fill:#0000ff;stroke:#0000ff;" x="136.574711" xlink:href="#mb5d4f5f2a5" y="143.934483"/>
     <use style="fill:#0000ff;stroke:#0000ff;" x="114.614863" xlink:href="#mb5d4f5f2a5" y="144.062832"/>
     <use style="fill:#0000ff;stroke:#0000ff;" x="115.194561" xlink:href="#mb5d4f5f2a5" y="85.920835"/>
     <use style="fill:#0000ff;stroke:#0000ff;" x="117.524105" xlink:href="#mb5d4f5f2a5" y="110.034038"/>
     <use style="fill:#0000ff;stroke:#0000ff;" x="149.823715" xlink:href="#mb5d4f5f2a5" y="152.647171"/>
     <use style="fill:#0000ff;stroke:#0000ff;" x="152.161257" xlink:href="#mb5d4f5f2a5" y="125.957238"/>
     <use style="fill:#0000ff;stroke:#0000ff;" x="118.88045" xlink:href="#mb5d4f5f2a5" y="87.880252"/>
     <use style="fill:#0000ff;stroke:#0000ff;" x="193.420025" xlink:href="#mb5d4f5f2a5" y="129.26291"/>
     <use style="fill:#0000ff;stroke:#0000ff;" x="204.014993" xlink:href="#mb5d4f5f2a5" y="157.689535"/>
     <use style="fill:#0000ff;stroke:#0000ff;" x="158.535163" xlink:href="#mb5d4f5f2a5" y="159.198993"/>
     <use style="fill:#0000ff;stroke:#0000ff;" x="96.334274" xlink:href="#mb5d4f5f2a5" y="116.414708"/>
     <use style="fill:#0000ff;stroke:#0000ff;" x="109.331015" xlink:href="#mb5d4f5f2a5" y="105.677398"/>
     <use style="fill:#0000ff;stroke:#0000ff;" x="145.358531" xlink:href="#mb5d4f5f2a5" y="149.202821"/>
     <use style="fill:#0000ff;stroke:#0000ff;" x="90.443087" xlink:href="#mb5d4f5f2a5" y="107.152509"/>
     <use style="fill:#0000ff;stroke:#0000ff;" x="150.295216" xlink:href="#mb5d4f5f2a5" y="83.530842"/>
     <use style="fill:#0000ff;stroke:#0000ff;" x="107.700411" xlink:href="#mb5d4f5f2a5" y="128.168543"/>
     <use style="fill:#0000ff;stroke:#0000ff;" x="193.947432" xlink:href="#mb5d4f5f2a5" y="134.358913"/>
     <use style="fill:#0000ff;stroke:#0000ff;" x="185.04571" xlink:href="#mb5d4f5f2a5" y="161.229263"/>
     <use style="fill:#0000ff;stroke:#0000ff;" x="125.0508" xlink:href="#mb5d4f5f2a5" y="118.35504"/>
     <use style="fill:#0000ff;stroke:#0000ff;" x="112.985609" xlink:href="#mb5d4f5f2a5" y="66.689988"/>
     <use style="fill:#0000ff;stroke:#0000ff;" x="152.179298" xlink:href="#mb5d4f5f2a5" y="92.535168"/>
     <use style="fill:#0000ff;stroke:#0000ff;" x="160.049951" xlink:href="#mb5d4f5f2a5" y="99.305134"/>
     <use style="fill:#0000ff;stroke:#0000ff;" x="132.487163" xlink:href="#mb5d4f5f2a5" y="55.089534"/>
     <use style="fill:#0000ff;stroke:#0000ff;" x="99.450835" xlink:href="#mb5d4f5f2a5" y="125.957639"/>
     <use style="fill:#0000ff;stroke:#0000ff;" x="133.267591" xlink:href="#mb5d4f5f2a5" y="104.967624"/>
     <use style="fill:#0000ff;stroke:#0000ff;" x="233.713583" xlink:href="#mb5d4f5f2a5" y="103.911241"/>
     <use style="fill:#0000ff;stroke:#0000ff;" x="111.823983" xlink:href="#mb5d4f5f2a5" y="139.447686"/>
     <use style="fill:#0000ff;stroke:#0000ff;" x="127.862929" xlink:href="#mb5d4f5f2a5" y="116.23276"/>
     <use style="fill:#0000ff;stroke:#0000ff;" x="208.265133" xlink:href="#mb5d4f5f2a5" y="74.258451"/>
     <use style="fill:#0000ff;stroke:#0000ff;" x="129.533733" xlink:href="#mb5d4f5f2a5" y="142.007438"/>
     <use style="fill:#0000ff;stroke:#0000ff;" x="170.267662" xlink:href="#mb5d4f5f2a5" y="131.424013"/>
     <use style="fill:#0000ff;stroke:#0000ff;" x="195.666314" xlink:href="#mb5d4f5f2a5" y="173.788227"/>
     <use style="fill:#0000ff;stroke:#0000ff;" x="111.122956" xlink:href="#mb5d4f5f2a5" y="107.439939"/>
     <use style="fill:#0000ff;stroke:#0000ff;" x="139.027038" xlink:href="#mb5d4f5f2a5" y="91.195592"/>
     <use style="fill:#0000ff;stroke:#0000ff;" x="93.345014" xlink:href="#mb5d4f5f2a5" y="90.989555"/>
     <use style="fill:#0000ff;stroke:#0000ff;" x="115.396303" xlink:href="#mb5d4f5f2a5" y="117.275822"/>
     <use style="fill:#0000ff;stroke:#0000ff;" x="159.421598" xlink:href="#mb5d4f5f2a5" y="154.583847"/>
     <use style="fill:#0000ff;stroke:#0000ff;" x="110.062162" xlink:href="#mb5d4f5f2a5" y="76.735568"/>
     <use style="fill:#0000ff;stroke:#0000ff;" x="116.86089" xlink:href="#mb5d4f5f2a5" y="90.202521"/>
     <use style="fill:#0000ff;stroke:#0000ff;" x="111.018041" xlink:href="#mb5d4f5f2a5" y="134.183563"/>
     <use style="fill:#0000ff;stroke:#0000ff;" x="175.427957" xlink:href="#mb5d4f5f2a5" y="203.723494"/>
     <use style="fill:#0000ff;stroke:#0000ff;" x="191.564179" xlink:href="#mb5d4f5f2a5" y="87.271869"/>
     <use style="fill:#0000ff;stroke:#0000ff;" x="283.65261" xlink:href="#mb5d4f5f2a5" y="95.451207"/>
     <use style="fill:#0000ff;stroke:#0000ff;" x="86.038547" xlink:href="#mb5d4f5f2a5" y="84.81517"/>
     <use style="fill:#0000ff;stroke:#0000ff;" x="128.629653" xlink:href="#mb5d4f5f2a5" y="75.353716"/>
     <use style="fill:#0000ff;stroke:#0000ff;" x="92.242347" xlink:href="#mb5d4f5f2a5" y="130.918795"/>
     <use style="fill:#0000ff;stroke:#0000ff;" x="158.915555" xlink:href="#mb5d4f5f2a5" y="128.048247"/>
     <use style="fill:#0000ff;stroke:#0000ff;" x="153.6089" xlink:href="#mb5d4f5f2a5" y="98.846774"/>
     <use style="fill:#0000ff;stroke:#0000ff;" x="167.151893" xlink:href="#mb5d4f5f2a5" y="140.14921"/>
     <use style="fill:#0000ff;stroke:#0000ff;" x="140.234073" xlink:href="#mb5d4f5f2a5" y="138.296159"/>
     <use style="fill:#0000ff;stroke:#0000ff;" x="76.506375" xlink:href="#mb5d4f5f2a5" y="202.02483"/>
     <use style="fill:#0000ff;stroke:#0000ff;" x="116.378383" xlink:href="#mb5d4f5f2a5" y="80.578812"/>
     <use style="fill:#0000ff;stroke:#0000ff;" x="111.731882" xlink:href="#mb5d4f5f2a5" y="117.628728"/>
     <use style="fill:#0000ff;stroke:#0000ff;" x="141.010508" xlink:href="#mb5d4f5f2a5" y="100.566932"/>
     <use style="fill:#0000ff;stroke:#0000ff;" x="265.969756" xlink:href="#mb5d4f5f2a5" y="142.960114"/>
     <use style="fill:#0000ff;stroke:#0000ff;" x="127.063595" xlink:href="#mb5d4f5f2a5" y="137.113901"/>
     <use style="fill:#0000ff;stroke:#0000ff;" x="134.5588" xlink:href="#mb5d4f5f2a5" y="152.355433"/>
     <use style="fill:#0000ff;stroke:#0000ff;" x="112.110355" xlink:href="#mb5d4f5f2a5" y="73.064059"/>
     <use style="fill:#0000ff;stroke:#0000ff;" x="157.119236" xlink:href="#mb5d4f5f2a5" y="113.636085"/>
     <use style="fill:#0000ff;stroke:#0000ff;" x="140.849165" xlink:href="#mb5d4f5f2a5" y="110.592628"/>
     <use style="fill:#0000ff;stroke:#0000ff;" x="114.536209" xlink:href="#mb5d4f5f2a5" y="152.508568"/>
     <use style="fill:#0000ff;stroke:#0000ff;" x="282.803661" xlink:href="#mb5d4f5f2a5" y="142.960114"/>
     <use style="fill:#0000ff;stroke:#0000ff;" x="111.333928" xlink:href="#mb5d4f5f2a5" y="117.076157"/>
     <use style="fill:#0000ff;stroke:#0000ff;" x="106.611097" xlink:href="#mb5d4f5f2a5" y="83.390362"/>
     <use style="fill:#0000ff;stroke:#0000ff;" x="122.21223" xlink:href="#mb5d4f5f2a5" y="61.342709"/>
     <use style="fill:#0000ff;stroke:#0000ff;" x="161.558217" xlink:href="#mb5d4f5f2a5" y="165.323208"/>
     <use style="fill:#0000ff;stroke:#0000ff;" x="118.635633" xlink:href="#mb5d4f5f2a5" y="167.836247"/>
     <use style="fill:#0000ff;stroke:#0000ff;" x="108.923472" xlink:href="#mb5d4f5f2a5" y="103.4575"/>
     <use style="fill:#0000ff;stroke:#0000ff;" x="146.246109" xlink:href="#mb5d4f5f2a5" y="55.089534"/>
     <use style="fill:#0000ff;stroke:#0000ff;" x="94.77844" xlink:href="#mb5d4f5f2a5" y="55.089534"/>
     <use style="fill:#0000ff;stroke:#0000ff;" x="146.104012" xlink:href="#mb5d4f5f2a5" y="58.654233"/>
     <use style="fill:#0000ff;stroke:#0000ff;" x="111.659932" xlink:href="#mb5d4f5f2a5" y="133.587011"/>
     <use style="fill:#0000ff;stroke:#0000ff;" x="119.475668" xlink:href="#mb5d4f5f2a5" y="127.778671"/>
     <use style="fill:#0000ff;stroke:#0000ff;" x="111.882453" xlink:href="#mb5d4f5f2a5" y="82.556454"/>
     <use style="fill:#0000ff;stroke:#0000ff;" x="130.654299" xlink:href="#mb5d4f5f2a5" y="91.81569"/>
     <use style="fill:#0000ff;stroke:#0000ff;" x="85.741436" xlink:href="#mb5d4f5f2a5" y="127.778671"/>
     <use style="fill:#0000ff;stroke:#0000ff;" x="122.611071" xlink:href="#mb5d4f5f2a5" y="55.089534"/>
     <use style="fill:#0000ff;stroke:#0000ff;" x="144.500729" xlink:href="#mb5d4f5f2a5" y="100.566932"/>
     <use style="fill:#0000ff;stroke:#0000ff;" x="118.490489" xlink:href="#mb5d4f5f2a5" y="123.554564"/>
     <use style="fill:#0000ff;stroke:#0000ff;" x="125.424833" xlink:href="#mb5d4f5f2a5" y="93.254646"/>
     <use style="fill:#0000ff;stroke:#0000ff;" x="136.522542" xlink:href="#mb5d4f5f2a5" y="126.788121"/>
     <use style="fill:#0000ff;stroke:#0000ff;" x="119.523497" xlink:href="#mb5d4f5f2a5" y="141.269882"/>
     <use style="fill:#0000ff;stroke:#0000ff;" x="136.432323" xlink:href="#mb5d4f5f2a5" y="100.104599"/>
     <use style="fill:#0000ff;stroke:#0000ff;" x="135.742273" xlink:href="#mb5d4f5f2a5" y="163.056699"/>
     <use style="fill:#0000ff;stroke:#0000ff;" x="117.630029" xlink:href="#mb5d4f5f2a5" y="146.966054"/>
     <use style="fill:#0000ff;stroke:#0000ff;" x="170.307686" xlink:href="#mb5d4f5f2a5" y="94.568869"/>
     <use style="fill:#0000ff;stroke:#0000ff;" x="99.218532" xlink:href="#mb5d4f5f2a5" y="99.585332"/>
     <use style="fill:#0000ff;stroke:#0000ff;" x="130.434836" xlink:href="#mb5d4f5f2a5" y="152.85023"/>
     <use style="fill:#0000ff;stroke:#0000ff;" x="158.934463" xlink:href="#mb5d4f5f2a5" y="86.211713"/>
     <use style="fill:#0000ff;stroke:#0000ff;" x="174.784389" xlink:href="#mb5d4f5f2a5" y="158.929641"/>
     <use style="fill:#0000ff;stroke:#0000ff;" x="167.039512" xlink:href="#mb5d4f5f2a5" y="122.769782"/>
     <use style="fill:#0000ff;stroke:#0000ff;" x="140.648177" xlink:href="#mb5d4f5f2a5" y="88.349746"/>
     <use style="fill:#0000ff;stroke:#0000ff;" x="98.428144" xlink:href="#mb5d4f5f2a5" y="111.422109"/>
     <use style="fill:#0000ff;stroke:#0000ff;" x="185.348299" xlink:href="#mb5d4f5f2a5" y="91.132366"/>
     <use style="fill:#0000ff;stroke:#0000ff;" x="245.510554" xlink:href="#mb5d4f5f2a5" y="140.61729"/>
     <use style="fill:#0000ff;stroke:#0000ff;" x="179.840453" xlink:href="#mb5d4f5f2a5" y="110.592628"/>
     <use style="fill:#0000ff;stroke:#0000ff;" x="97.247847" xlink:href="#mb5d4f5f2a5" y="83.991815"/>
     <use style="fill:#0000ff;stroke:#0000ff;" x="111.379245" xlink:href="#mb5d4f5f2a5" y="108.175687"/>
     <use style="fill:#0000ff;stroke:#0000ff;" x="103.288586" xlink:href="#mb5d4f5f2a5" y="105.467701"/>
     <use style="fill:#0000ff;stroke:#0000ff;" x="130.610202" xlink:href="#mb5d4f5f2a5" y="147.038914"/>
     <use style="fill:#0000ff;stroke:#0000ff;" x="89.991786" xlink:href="#mb5d4f5f2a5" y="93.728273"/>
     <use style="fill:#0000ff;stroke:#0000ff;" x="85.228226" xlink:href="#mb5d4f5f2a5" y="93.957855"/>
     <use style="fill:#0000ff;stroke:#0000ff;" x="118.052848" xlink:href="#mb5d4f5f2a5" y="163.947912"/>
     <use style="fill:#0000ff;stroke:#0000ff;" x="103.162015" xlink:href="#mb5d4f5f2a5" y="94.201899"/>
     <use style="fill:#0000ff;stroke:#0000ff;" x="103.855929" xlink:href="#mb5d4f5f2a5" y="140.996373"/>
     <use style="fill:#0000ff;stroke:#0000ff;" x="88.712263" xlink:href="#mb5d4f5f2a5" y="112.93463"/>
     <use style="fill:#0000ff;stroke:#0000ff;" x="95.586602" xlink:href="#mb5d4f5f2a5" y="93.343225"/>
     <use style="fill:#0000ff;stroke:#0000ff;" x="104.988621" xlink:href="#mb5d4f5f2a5" y="79.251935"/>
     <use style="fill:#0000ff;stroke:#0000ff;" x="112.293414" xlink:href="#mb5d4f5f2a5" y="100.577193"/>
     <use style="fill:#0000ff;stroke:#0000ff;" x="114.612421" xlink:href="#mb5d4f5f2a5" y="136.028972"/>
     <use style="fill:#0000ff;stroke:#0000ff;" x="104.360582" xlink:href="#mb5d4f5f2a5" y="113.94128"/>
     <use style="fill:#0000ff;stroke:#0000ff;" x="98.839807" xlink:href="#mb5d4f5f2a5" y="76.64639"/>
     <use style="fill:#0000ff;stroke:#0000ff;" x="158.172511" xlink:href="#mb5d4f5f2a5" y="168.000387"/>
     <use style="fill:#0000ff;stroke:#0000ff;" x="96.070329" xlink:href="#mb5d4f5f2a5" y="57.727041"/>
     <use style="fill:#0000ff;stroke:#0000ff;" x="145.388" xlink:href="#mb5d4f5f2a5" y="55.089534"/>
     <use style="fill:#0000ff;stroke:#0000ff;" x="136.671501" xlink:href="#mb5d4f5f2a5" y="116.705703"/>
     <use style="fill:#0000ff;stroke:#0000ff;" x="100.850701" xlink:href="#mb5d4f5f2a5" y="125.34967"/>
     <use style="fill:#0000ff;stroke:#0000ff;" x="96.686982" xlink:href="#mb5d4f5f2a5" y="70.018027"/>
     <use style="fill:#0000ff;stroke:#0000ff;" x="198.042646" xlink:href="#mb5d4f5f2a5" y="150.63937"/>
     <use style="fill:#0000ff;stroke:#0000ff;" x="154.05518" xlink:href="#mb5d4f5f2a5" y="72.536873"/>
     <use style="fill:#0000ff;stroke:#0000ff;" x="95.348568" xlink:href="#mb5d4f5f2a5" y="105.317659"/>
     <use style="fill:#0000ff;stroke:#0000ff;" x="147.562961" xlink:href="#mb5d4f5f2a5" y="86.211713"/>
     <use style="fill:#0000ff;stroke:#0000ff;" x="144.301405" xlink:href="#mb5d4f5f2a5" y="114.098818"/>
     <use style="fill:#0000ff;stroke:#0000ff;" x="145.761164" xlink:href="#mb5d4f5f2a5" y="124.39772"/>
     <use style="fill:#0000ff;stroke:#0000ff;" x="243.116398" xlink:href="#mb5d4f5f2a5" y="95.451207"/>
     <use style="fill:#0000ff;stroke:#0000ff;" x="131.5439" xlink:href="#mb5d4f5f2a5" y="146.51412"/>
     <use style="fill:#0000ff;stroke:#0000ff;" x="113.688612" xlink:href="#mb5d4f5f2a5" y="163.555634"/>
     <use style="fill:#0000ff;stroke:#0000ff;" x="132.135713" xlink:href="#mb5d4f5f2a5" y="86.211713"/>
     <use style="fill:#0000ff;stroke:#0000ff;" x="117.697155" xlink:href="#mb5d4f5f2a5" y="100.850747"/>
     <use style="fill:#0000ff;stroke:#0000ff;" x="138.265894" xlink:href="#mb5d4f5f2a5" y="105.552664"/>
     <use style="fill:#0000ff;stroke:#0000ff;" x="102.705936" xlink:href="#mb5d4f5f2a5" y="94.256131"/>
     <use style="fill:#0000ff;stroke:#0000ff;" x="130.598285" xlink:href="#mb5d4f5f2a5" y="141.166842"/>
     <use style="fill:#0000ff;stroke:#0000ff;" x="108.286619" xlink:href="#mb5d4f5f2a5" y="127.800453"/>
     <use style="fill:#0000ff;stroke:#0000ff;" x="146.936924" xlink:href="#mb5d4f5f2a5" y="77.306812"/>
     <use style="fill:#0000ff;stroke:#0000ff;" x="141.44732" xlink:href="#mb5d4f5f2a5" y="141.083686"/>
     <use style="fill:#0000ff;stroke:#0000ff;" x="119.696558" xlink:href="#mb5d4f5f2a5" y="138.724592"/>
     <use style="fill:#0000ff;stroke:#0000ff;" x="89.207569" xlink:href="#mb5d4f5f2a5" y="58.654233"/>
     <use style="fill:#0000ff;stroke:#0000ff;" x="107.169691" xlink:href="#mb5d4f5f2a5" y="100.566932"/>
     <use style="fill:#0000ff;stroke:#0000ff;" x="122.295055" xlink:href="#mb5d4f5f2a5" y="118.976039"/>
     <use style="fill:#0000ff;stroke:#0000ff;" x="103.284705" xlink:href="#mb5d4f5f2a5" y="90.805166"/>
     <use style="fill:#0000ff;stroke:#0000ff;" x="115.505247" xlink:href="#mb5d4f5f2a5" y="127.303326"/>
     <use style="fill:#0000ff;stroke:#0000ff;" x="99.395676" xlink:href="#mb5d4f5f2a5" y="90.808781"/>
     <use style="fill:#0000ff;stroke:#0000ff;" x="189.105481" xlink:href="#mb5d4f5f2a5" y="126.373827"/>
     <use style="fill:#0000ff;stroke:#0000ff;" x="250.230851" xlink:href="#mb5d4f5f2a5" y="129.26291"/>
     <use style="fill:#0000ff;stroke:#0000ff;" x="131.549145" xlink:href="#mb5d4f5f2a5" y="144.5635"/>
     <use style="fill:#0000ff;stroke:#0000ff;" x="155.827828" xlink:href="#mb5d4f5f2a5" y="162.936984"/>
     <use style="fill:#0000ff;stroke:#0000ff;" x="133.379011" xlink:href="#mb5d4f5f2a5" y="82.402816"/>
     <use style="fill:#0000ff;stroke:#0000ff;" x="185.111509" xlink:href="#mb5d4f5f2a5" y="123.348463"/>
     <use style="fill:#0000ff;stroke:#0000ff;" x="84.521994" xlink:href="#mb5d4f5f2a5" y="91.195018"/>
     <use style="fill:#0000ff;stroke:#0000ff;" x="189.304231" xlink:href="#mb5d4f5f2a5" y="97.792527"/>
     <use style="fill:#0000ff;stroke:#0000ff;" x="158.42695" xlink:href="#mb5d4f5f2a5" y="75.533425"/>
     <use style="fill:#0000ff;stroke:#0000ff;" x="94.012716" xlink:href="#mb5d4f5f2a5" y="125.957639"/>
     <use style="fill:#0000ff;stroke:#0000ff;" x="143.035366" xlink:href="#mb5d4f5f2a5" y="92.394165"/>
     <use style="fill:#0000ff;stroke:#0000ff;" x="98.568412" xlink:href="#mb5d4f5f2a5" y="121.522995"/>
     <use style="fill:#0000ff;stroke:#0000ff;" x="121.732534" xlink:href="#mb5d4f5f2a5" y="157.519608"/>
     <use style="fill:#0000ff;stroke:#0000ff;" x="199.716551" xlink:href="#mb5d4f5f2a5" y="118.631623"/>
     <use style="fill:#0000ff;stroke:#0000ff;" x="97.180273" xlink:href="#mb5d4f5f2a5" y="94.350133"/>
     <use style="fill:#0000ff;stroke:#0000ff;" x="206.093307" xlink:href="#mb5d4f5f2a5" y="150.067473"/>
     <use style="fill:#0000ff;stroke:#0000ff;" x="129.095146" xlink:href="#mb5d4f5f2a5" y="91.81569"/>
     <use style="fill:#0000ff;stroke:#0000ff;" x="119.122428" xlink:href="#mb5d4f5f2a5" y="90.914353"/>
     <use style="fill:#0000ff;stroke:#0000ff;" x="170.580673" xlink:href="#mb5d4f5f2a5" y="234.252012"/>
     <use style="fill:#0000ff;stroke:#0000ff;" x="127.885852" xlink:href="#mb5d4f5f2a5" y="53.568"/>
     <use style="fill:#0000ff;stroke:#0000ff;" x="133.505328" xlink:href="#mb5d4f5f2a5" y="151.839706"/>
     <use style="fill:#0000ff;stroke:#0000ff;" x="181.348676" xlink:href="#mb5d4f5f2a5" y="92.238699"/>
     <use style="fill:#0000ff;stroke:#0000ff;" x="169.97696" xlink:href="#mb5d4f5f2a5" y="87.271869"/>
     <use style="fill:#0000ff;stroke:#0000ff;" x="118.377957" xlink:href="#mb5d4f5f2a5" y="141.598009"/>
     <use style="fill:#0000ff;stroke:#0000ff;" x="132.675341" xlink:href="#mb5d4f5f2a5" y="128.598603"/>
     <use style="fill:#0000ff;stroke:#0000ff;" x="140.186458" xlink:href="#mb5d4f5f2a5" y="136.848164"/>
     <use style="fill:#0000ff;stroke:#0000ff;" x="110.875117" xlink:href="#mb5d4f5f2a5" y="136.028972"/>
     <use style="fill:#0000ff;stroke:#0000ff;" x="91.659617" xlink:href="#mb5d4f5f2a5" y="122.675525"/>
     <use style="fill:#0000ff;stroke:#0000ff;" x="143.027329" xlink:href="#mb5d4f5f2a5" y="159.198993"/>
     <use style="fill:#0000ff;stroke:#0000ff;" x="104.646185" xlink:href="#mb5d4f5f2a5" y="95.793093"/>
     <use style="fill:#0000ff;stroke:#0000ff;" x="97.055082" xlink:href="#mb5d4f5f2a5" y="104.74165"/>
     <use style="fill:#0000ff;stroke:#0000ff;" x="90.566306" xlink:href="#mb5d4f5f2a5" y="103.996527"/>
     <use style="fill:#0000ff;stroke:#0000ff;" x="90.857869" xlink:href="#mb5d4f5f2a5" y="87.868064"/>
     <use style="fill:#0000ff;stroke:#0000ff;" x="96.394882" xlink:href="#mb5d4f5f2a5" y="101.458452"/>
     <use style="fill:#0000ff;stroke:#0000ff;" x="134.566372" xlink:href="#mb5d4f5f2a5" y="100.566932"/>
     <use style="fill:#0000ff;stroke:#0000ff;" x="93.580152" xlink:href="#mb5d4f5f2a5" y="58.654233"/>
     <use style="fill:#0000ff;stroke:#0000ff;" x="136.519078" xlink:href="#mb5d4f5f2a5" y="161.726677"/>
     <use style="fill:#0000ff;stroke:#0000ff;" x="123.172632" xlink:href="#mb5d4f5f2a5" y="115.784119"/>
     <use style="fill:#0000ff;stroke:#0000ff;" x="110.441012" xlink:href="#mb5d4f5f2a5" y="79.528518"/>
     <use style="fill:#0000ff;stroke:#0000ff;" x="104.995712" xlink:href="#mb5d4f5f2a5" y="150.812913"/>
     <use style="fill:#0000ff;stroke:#0000ff;" x="137.959629" xlink:href="#mb5d4f5f2a5" y="99.286163"/>
     <use style="fill:#0000ff;stroke:#0000ff;" x="189.269952" xlink:href="#mb5d4f5f2a5" y="155.193054"/>
     <use style="fill:#0000ff;stroke:#0000ff;" x="117.617226" xlink:href="#mb5d4f5f2a5" y="145.148208"/>
     <use style="fill:#0000ff;stroke:#0000ff;" x="114.656758" xlink:href="#mb5d4f5f2a5" y="98.972944"/>
     <use style="fill:#0000ff;stroke:#0000ff;" x="147.134013" xlink:href="#mb5d4f5f2a5" y="107.852712"/>
     <use style="fill:#0000ff;stroke:#0000ff;" x="238.955669" xlink:href="#mb5d4f5f2a5" y="139.792963"/>
     <use style="fill:#0000ff;stroke:#0000ff;" x="117.454202" xlink:href="#mb5d4f5f2a5" y="86.629299"/>
     <use style="fill:#0000ff;stroke:#0000ff;" x="121.900458" xlink:href="#mb5d4f5f2a5" y="150.243547"/>
     <use style="fill:#0000ff;stroke:#0000ff;" x="110.705255" xlink:href="#mb5d4f5f2a5" y="129.380152"/>
     <use style="fill:#0000ff;stroke:#0000ff;" x="126.132917" xlink:href="#mb5d4f5f2a5" y="98.972944"/>
     <use style="fill:#0000ff;stroke:#0000ff;" x="191.924349" xlink:href="#mb5d4f5f2a5" y="115.979677"/>
     <use style="fill:#0000ff;stroke:#0000ff;" x="91.182938" xlink:href="#mb5d4f5f2a5" y="99.76249"/>
     <use style="fill:#0000ff;stroke:#0000ff;" x="197.267924" xlink:href="#mb5d4f5f2a5" y="145.271809"/>
     <use style="fill:#0000ff;stroke:#0000ff;" x="101.773888" xlink:href="#mb5d4f5f2a5" y="96.219341"/>
     <use style="fill:#0000ff;stroke:#0000ff;" x="92.636894" xlink:href="#mb5d4f5f2a5" y="96.947848"/>
     <use style="fill:#0000ff;stroke:#0000ff;" x="84.226487" xlink:href="#mb5d4f5f2a5" y="109.820454"/>
     <use style="fill:#0000ff;stroke:#0000ff;" x="115.452943" xlink:href="#mb5d4f5f2a5" y="106.878303"/>
     <use style="fill:#0000ff;stroke:#0000ff;" x="187.0065" xlink:href="#mb5d4f5f2a5" y="132.169475"/>
     <use style="fill:#0000ff;stroke:#0000ff;" x="148.107634" xlink:href="#mb5d4f5f2a5" y="92.379514"/>
     <use style="fill:#0000ff;stroke:#0000ff;" x="144.444315" xlink:href="#mb5d4f5f2a5" y="154.540462"/>
     <use style="fill:#0000ff;stroke:#0000ff;" x="112.276519" xlink:href="#mb5d4f5f2a5" y="219.360112"/>
     <use style="fill:#0000ff;stroke:#0000ff;" x="104.209904" xlink:href="#mb5d4f5f2a5" y="132.576487"/>
     <use style="fill:#0000ff;stroke:#0000ff;" x="191.545282" xlink:href="#mb5d4f5f2a5" y="142.081555"/>
     <use style="fill:#0000ff;stroke:#0000ff;" x="120.633246" xlink:href="#mb5d4f5f2a5" y="125.248159"/>
     <use style="fill:#0000ff;stroke:#0000ff;" x="98.297642" xlink:href="#mb5d4f5f2a5" y="88.279761"/>
     <use style="fill:#0000ff;stroke:#0000ff;" x="118.58189" xlink:href="#mb5d4f5f2a5" y="98.282566"/>
     <use style="fill:#0000ff;stroke:#0000ff;" x="120.937047" xlink:href="#mb5d4f5f2a5" y="106.46557"/>
     <use style="fill:#0000ff;stroke:#0000ff;" x="126.76723" xlink:href="#mb5d4f5f2a5" y="136.253419"/>
     <use style="fill:#0000ff;stroke:#0000ff;" x="100.372672" xlink:href="#mb5d4f5f2a5" y="135.510276"/>
     <use style="fill:#0000ff;stroke:#0000ff;" x="120.65251" xlink:href="#mb5d4f5f2a5" y="129.277372"/>
     <use style="fill:#0000ff;stroke:#0000ff;" x="129.25265" xlink:href="#mb5d4f5f2a5" y="161.767784"/>
     <use style="fill:#0000ff;stroke:#0000ff;" x="283.086879" xlink:href="#mb5d4f5f2a5" y="76.736127"/>
     <use style="fill:#0000ff;stroke:#0000ff;" x="123.601465" xlink:href="#mb5d4f5f2a5" y="109.932725"/>
     <use style="fill:#0000ff;stroke:#0000ff;" x="122.652074" xlink:href="#mb5d4f5f2a5" y="77.279696"/>
     <use style="fill:#0000ff;stroke:#0000ff;" x="108.506315" xlink:href="#mb5d4f5f2a5" y="175.515605"/>
     <use style="fill:#0000ff;stroke:#0000ff;" x="121.726802" xlink:href="#mb5d4f5f2a5" y="122.481899"/>
     <use style="fill:#0000ff;stroke:#0000ff;" x="131.197351" xlink:href="#mb5d4f5f2a5" y="128.598603"/>
     <use style="fill:#0000ff;stroke:#0000ff;" x="136.218563" xlink:href="#mb5d4f5f2a5" y="144.493848"/>
     <use style="fill:#0000ff;stroke:#0000ff;" x="114.572808" xlink:href="#mb5d4f5f2a5" y="79.349107"/>
     <use style="fill:#0000ff;stroke:#0000ff;" x="135.433648" xlink:href="#mb5d4f5f2a5" y="100.566932"/>
     <use style="fill:#0000ff;stroke:#0000ff;" x="232.052267" xlink:href="#mb5d4f5f2a5" y="118.250268"/>
     <use style="fill:#0000ff;stroke:#0000ff;" x="132.847023" xlink:href="#mb5d4f5f2a5" y="93.502568"/>
     <use style="fill:#0000ff;stroke:#0000ff;" x="198.430235" xlink:href="#mb5d4f5f2a5" y="110.592628"/>
     <use style="fill:#0000ff;stroke:#0000ff;" x="109.688598" xlink:href="#mb5d4f5f2a5" y="85.953207"/>
     <use style="fill:#0000ff;stroke:#0000ff;" x="125.779067" xlink:href="#mb5d4f5f2a5" y="159.220587"/>
     <use style="fill:#0000ff;stroke:#0000ff;" x="128.577748" xlink:href="#mb5d4f5f2a5" y="99.6459"/>
     <use style="fill:#0000ff;stroke:#0000ff;" x="155.498057" xlink:href="#mb5d4f5f2a5" y="148.296547"/>
     <use style="fill:#0000ff;stroke:#0000ff;" x="97.235571" xlink:href="#mb5d4f5f2a5" y="116.405002"/>
     <use style="fill:#0000ff;stroke:#0000ff;" x="136.440166" xlink:href="#mb5d4f5f2a5" y="105.254808"/>
     <use style="fill:#0000ff;stroke:#0000ff;" x="288.420554" xlink:href="#mb5d4f5f2a5" y="111.556933"/>
     <use style="fill:#0000ff;stroke:#0000ff;" x="341.508528" xlink:href="#mb5d4f5f2a5" y="157.689535"/>
     <use style="fill:#0000ff;stroke:#0000ff;" x="208.205975" xlink:href="#mb5d4f5f2a5" y="157.973116"/>
     <use style="fill:#0000ff;stroke:#0000ff;" x="129.538843" xlink:href="#mb5d4f5f2a5" y="165.040269"/>
     <use style="fill:#0000ff;stroke:#0000ff;" x="116.396286" xlink:href="#mb5d4f5f2a5" y="154.755582"/>
     <use style="fill:#0000ff;stroke:#0000ff;" x="115.584437" xlink:href="#mb5d4f5f2a5" y="122.637563"/>
     <use style="fill:#0000ff;stroke:#0000ff;" x="100.478178" xlink:href="#mb5d4f5f2a5" y="72.032299"/>
     <use style="fill:#0000ff;stroke:#0000ff;" x="108.966905" xlink:href="#mb5d4f5f2a5" y="133.758193"/>
     <use style="fill:#0000ff;stroke:#0000ff;" x="132.813671" xlink:href="#mb5d4f5f2a5" y="122.769782"/>
     <use style="fill:#0000ff;stroke:#0000ff;" x="143.736577" xlink:href="#mb5d4f5f2a5" y="75.14803"/>
     <use style="fill:#0000ff;stroke:#0000ff;" x="96.436217" xlink:href="#mb5d4f5f2a5" y="93.493267"/>
     <use style="fill:#0000ff;stroke:#0000ff;" x="111.787916" xlink:href="#mb5d4f5f2a5" y="152.718218"/>
     <use style="fill:#0000ff;stroke:#0000ff;" x="141.623352" xlink:href="#mb5d4f5f2a5" y="147.79913"/>
     <use style="fill:#0000ff;stroke:#0000ff;" x="105.612273" xlink:href="#mb5d4f5f2a5" y="73.68592"/>
     <use style="fill:#0000ff;stroke:#0000ff;" x="141.295659" xlink:href="#mb5d4f5f2a5" y="133.729822"/>
     <use style="fill:#0000ff;stroke:#0000ff;" x="191.138602" xlink:href="#mb5d4f5f2a5" y="76.736127"/>
     <use style="fill:#0000ff;stroke:#0000ff;" x="112.379009" xlink:href="#mb5d4f5f2a5" y="106.187179"/>
     <use style="fill:#0000ff;stroke:#0000ff;" x="146.906745" xlink:href="#mb5d4f5f2a5" y="92.535168"/>
     <use style="fill:#0000ff;stroke:#0000ff;" x="308.585944" xlink:href="#mb5d4f5f2a5" y="152.894891"/>
     <use style="fill:#0000ff;stroke:#0000ff;" x="97.892575" xlink:href="#mb5d4f5f2a5" y="70.249417"/>
     <use style="fill:#0000ff;stroke:#0000ff;" x="266.504207" xlink:href="#mb5d4f5f2a5" y="92.238699"/>
     <use style="fill:#0000ff;stroke:#0000ff;" x="120.301862" xlink:href="#mb5d4f5f2a5" y="105.154962"/>
     <use style="fill:#0000ff;stroke:#0000ff;" x="141.902174" xlink:href="#mb5d4f5f2a5" y="146.177511"/>
     <use style="fill:#0000ff;stroke:#0000ff;" x="106.892705" xlink:href="#mb5d4f5f2a5" y="174.587692"/>
     <use style="fill:#0000ff;stroke:#0000ff;" x="105.515511" xlink:href="#mb5d4f5f2a5" y="92.352587"/>
     <use style="fill:#0000ff;stroke:#0000ff;" x="100.122037" xlink:href="#mb5d4f5f2a5" y="98.108413"/>
     <use style="fill:#0000ff;stroke:#0000ff;" x="113.730229" xlink:href="#mb5d4f5f2a5" y="97.636344"/>
     <use style="fill:#0000ff;stroke:#0000ff;" x="179.612278" xlink:href="#mb5d4f5f2a5" y="91.132366"/>
     <use style="fill:#0000ff;stroke:#0000ff;" x="128.900833" xlink:href="#mb5d4f5f2a5" y="130.987489"/>
     <use style="fill:#0000ff;stroke:#0000ff;" x="182.700353" xlink:href="#mb5d4f5f2a5" y="136.913242"/>
     <use style="fill:#0000ff;stroke:#0000ff;" x="196.447623" xlink:href="#mb5d4f5f2a5" y="92.282085"/>
     <use style="fill:#0000ff;stroke:#0000ff;" x="152.706081" xlink:href="#mb5d4f5f2a5" y="100.104599"/>
     <use style="fill:#0000ff;stroke:#0000ff;" x="101.736931" xlink:href="#mb5d4f5f2a5" y="151.721902"/>
     <use style="fill:#0000ff;stroke:#0000ff;" x="101.853856" xlink:href="#mb5d4f5f2a5" y="91.210098"/>
     <use style="fill:#0000ff;stroke:#0000ff;" x="96.470345" xlink:href="#mb5d4f5f2a5" y="90.85759"/>
     <use style="fill:#0000ff;stroke:#0000ff;" x="116.789556" xlink:href="#mb5d4f5f2a5" y="159.669277"/>
     <use style="fill:#0000ff;stroke:#0000ff;" x="163.195651" xlink:href="#mb5d4f5f2a5" y="110.294352"/>
     <use style="fill:#0000ff;stroke:#0000ff;" x="142.535536" xlink:href="#mb5d4f5f2a5" y="149.511344"/>
     <use style="fill:#0000ff;stroke:#0000ff;" x="102.270156" xlink:href="#mb5d4f5f2a5" y="86.450334"/>
     <use style="fill:#0000ff;stroke:#0000ff;" x="155.859396" xlink:href="#mb5d4f5f2a5" y="60.623262"/>
     <use style="fill:#0000ff;stroke:#0000ff;" x="87.503629" xlink:href="#mb5d4f5f2a5" y="60.623262"/>
    </g>
   </g>
   <g id="patch_3">
    <path d="M 57.6 307.584 
L 57.6 41.472 
" style="fill:none;stroke:#000000;stroke-linecap:square;stroke-linejoin:miter;stroke-width:0.8;"/>
   </g>
   <g id="patch_4">
    <path d="M 414.72 307.584 
L 414.72 41.472 
" style="fill:none;stroke:#000000;stroke-linecap:square;stroke-linejoin:miter;stroke-width:0.8;"/>
   </g>
   <g id="patch_5">
    <path d="M 57.6 307.584 
L 414.72 307.584 
" style="fill:none;stroke:#000000;stroke-linecap:square;stroke-linejoin:miter;stroke-width:0.8;"/>
   </g>
   <g id="patch_6">
    <path d="M 57.6 41.472 
L 414.72 41.472 
" style="fill:none;stroke:#000000;stroke-linecap:square;stroke-linejoin:miter;stroke-width:0.8;"/>
   </g>
  </g>
 </g>
 <defs>
  <clipPath id="p8d4ea347d6">
   <rect height="266.112" width="357.12" x="57.6" y="41.472"/>
  </clipPath>
 </defs>
</svg>
